<?xml version="1.0" encoding="utf-8"?>
<!-- Generator: Adobe Illustrator 18.1.1, SVG Export Plug-In . SVG Version: 6.00 Build 0)  -->
<svg version="1.1" xmlns="http://www.w3.org/2000/svg" xmlns:xlink="http://www.w3.org/1999/xlink" x="0px" y="0px"
	 viewBox="0 0 142.4 82.4" enable-background="new 0 0 142.4 82.4" xml:space="preserve">
<g id="Layer_1">
	<path d="M142,71.6c-0.9-1.8-3.2-0.6-5,0.4c-0.8,0.4-3.3,2.2-6.5,3c-4.3,1.1-9.4,0.8-11.7-1.8c-4.6-5-2.6-10-2.6-10
		s3.6,0.9,5.9,1.2c5.5,0.6,10.8-1,14.8-4.1c4.4-3.5,6-9.9,4.3-14.4c-3-8-9.1-9.5-17.2-8.2c-6.4,1-13.5,5.8-17.4,14.4
		c-2.8,6.1-3.4,11.8-2.6,16.7c-0.2,0.2-0.4,0.4-0.6,0.6c-2.6,2.4-4.2,4.3-7.7,4.9s-3.1-3.6-2.7-7.8c0.4-4.2,1-6,2.3-13.3
		c0.9-5.2,2-10,2-10s0.5-2.1-5.7-2.7c-5.3-0.6-5.6,2.3-5.6,2.3s-1.4,5.5-2.8,10.2c-1.5,5.2-3.2,9.6-4.4,12.1
		c-1.9,3.9-5.9,7-10.2,6.9c-4.2-0.2-3.6-6.3-2.9-10c1-4.7,2.5-10.7,3.5-14.9c0.5-1.9,1.2-4.2,1.2-4.2s-0.9-2.6-5.7-3.7
		c-4.8-1.1-7.2,1.3-7.2,1.3s-1.2,2.9-1.9,5.9c-0.7,3-2.1,7.9-2.8,13.6c-0.3,2.4-0.5,5.5-0.1,8.5c-1.3,1.3-3,2.8-4.2,3.7
		c-2.2,1.6-5.7,2.6-6.8-2.2c-1.2-4.8,1.9-10.4,5.7-19.3c3.8-8.9,2-11.2-1.3-14.4c-3.3-3.2-9.7-1-11.9,0.3c-2.2,1.3-1.9,0.4-1.9,0.4
		s9.7-12.3,13.1-19c3.3-6.7,2.3-10.7-0.9-14.4S38.7,0.2,36.3,0c-2.5-0.1-6,0.9-12.8,8c-6.8,7.1-12.8,18.9-18.1,36.8
		C0,62.7,0,75.9,0,75.9c0.8,1.2,1.7,2.9,6.1,4.2c4.4,1.3,6.5,0.6,6.5,0.6s1.1-13.1,3.4-21.2c2.3-8.1,12.8-18.3,15.9-15.5
		c3.3,3-3.8,15.1-4.6,20.3c-0.9,5.2,0.7,10,6.4,14.4c5.7,4.4,13.1,0.9,16.4-1.7c1.3-1,2.5-2.2,3.7-3.5c0.8,2.3,2,4.3,3.8,5.8
		c5.4,4.3,12.2,1.4,16.8-1.9c4.6-3.3,6.3-7,6.3-7s-0.4,1.3,0.3,4.8c0.7,3.5,4.5,5.6,10.2,5.6s8.9-2.1,12.4-5.1
		c0.6-0.5,1.2-1.2,1.8-1.8c0,0.1,0.1,0.2,0.1,0.3c2.5,5.7,14.2,8.8,19.4,8.2c5.2-0.6,11.5-3.5,14.2-5.6
		C142,74.6,142.9,73.4,142,71.6z M124.9,45.6c5.1-3.4,8.6-2.2,10.2-0.7c1.6,1.5,3.9,9.4-3.4,13c-9.5,4.7-14.3,0.7-14.3,0.7
		S119,49.5,124.9,45.6z M20.2,42.8c0,0,4.9-14.8,9.9-23.2C35,11.2,38.6,4.2,41.4,8.1c2.6,3.7-1.5,11.5-7.1,18.3
		C28.6,33.2,24.4,40.5,20.2,42.8z"/>
</g>
</svg>
